<svg width="18" height="18" viewBox="0 0 18 18" fill="none" xmlns="http://www.w3.org/2000/svg">
<g clip-path="url(#clip0_2489_8347)">
<path d="M17.1337 8.75706C16.8694 8.41094 16.554 8.10964 16.1963 7.86147C16.0282 7.74487 15.8526 7.64129 15.6706 7.55118C15.675 7.4673 15.6773 7.38334 15.6773 7.29944C15.6773 6.66093 15.5519 6.04085 15.3047 5.45644C15.0663 4.8926 14.7251 4.38648 14.2908 3.95214C13.8565 3.51781 13.3504 3.17665 12.7865 2.93818C12.2021 2.69098 11.5821 2.56566 10.9436 2.56566C10.144 2.56566 9.35319 2.76921 8.65664 3.15432C8.20592 3.40351 7.7975 3.72665 7.4501 4.10638C6.98199 3.908 6.47922 3.7974 5.96561 3.78217C5.92536 3.78095 5.88438 3.78036 5.84392 3.78036C5.29391 3.78033 4.75789 3.88899 4.25056 4.10341C3.76329 4.30937 3.32432 4.60333 2.9459 4.97719C2.5667 5.35178 2.26719 5.7879 2.05565 6.27342C1.8349 6.78007 1.72051 7.31719 1.71564 7.86981C1.71508 7.93302 1.71597 7.99632 1.71828 8.05956C1.28291 8.37068 0.911077 8.76597 0.626501 9.22346C0.229192 9.86211 0.0177114 10.5986 0.0149206 11.3533C0.0129017 11.8999 0.120141 12.4322 0.33373 12.9353C0.537966 13.4164 0.830202 13.8497 1.20227 14.2232C1.57898 14.6013 2.01812 14.8988 2.50756 15.1074C3.01629 15.3243 3.55448 15.4343 4.10718 15.4343H13.8017C14.3682 15.4343 14.9196 15.3215 15.4405 15.0992C15.9419 14.8851 16.3915 14.5798 16.7767 14.1918C17.1574 13.8084 17.4559 13.3635 17.6638 12.8695C17.881 12.3535 17.9891 11.8077 17.9851 11.2472C17.9818 10.7898 17.9043 10.3402 17.7549 9.91092C17.6103 9.49574 17.4013 9.10749 17.1337 8.75706ZM13.8016 14.1624H4.10718C2.56477 14.1624 1.28107 12.9004 1.28683 11.358C1.29084 10.2844 1.9004 9.35368 2.79175 8.88939C2.96704 8.79809 3.06653 8.60496 3.03182 8.41037C3.00118 8.23873 2.98592 8.06178 2.98749 7.881C3.0013 6.32214 4.29435 5.05209 5.84368 5.05224C5.87159 5.05224 5.89982 5.05266 5.92788 5.05349C6.47827 5.06982 6.98929 5.24229 7.41878 5.52778C7.49716 5.57989 7.58594 5.60507 7.67355 5.60507C7.81882 5.60507 7.96077 5.5358 8.04628 5.40522C8.66448 4.4613 9.73093 3.83754 10.9435 3.83754C12.8555 3.83754 14.4054 5.38747 14.4054 7.29941C14.4054 7.53586 14.3813 7.76661 14.3359 7.98964C14.2894 8.21819 14.4258 8.4457 14.6495 8.51197C15.8362 8.86365 16.7038 9.95766 16.7132 11.2563C16.7247 12.8546 15.4 14.1624 13.8016 14.1624Z" fill="white"/>
<path d="M13.8007 15.4491H4.10619C3.55144 15.4491 3.01129 15.3387 2.50071 15.121C2.0095 14.9116 1.56875 14.6131 1.19071 14.2336C0.817303 13.8588 0.523997 13.4239 0.319019 12.941C0.104659 12.4361 -0.00299646 11.9018 -0.000947869 11.3531C0.00187266 10.5958 0.214125 9.8566 0.612859 9.21554C0.897584 8.75779 1.26402 8.36639 1.70212 8.05206C1.70001 7.99146 1.69921 7.93015 1.69974 7.86962C1.70464 7.31498 1.81945 6.77593 2.041 6.26744C2.25328 5.78017 2.55389 5.34251 2.93442 4.96661C3.31421 4.59145 3.75472 4.29642 4.24374 4.08972C4.75277 3.87459 5.29066 3.76551 5.84254 3.76551C5.88348 3.76551 5.9246 3.76613 5.96501 3.76735C6.47662 3.78252 6.97455 3.89059 7.44516 4.08865C7.79476 3.70815 8.19955 3.38946 8.64837 3.14134C9.34715 2.75502 10.1404 2.55081 10.9425 2.55081C11.5829 2.55081 12.205 2.67655 12.7913 2.92452C13.3569 3.16376 13.8646 3.50596 14.3002 3.94166C14.7359 4.37736 15.0781 4.88505 15.3174 5.45067C15.5653 6.03693 15.6911 6.65893 15.6911 7.29945C15.6911 7.37973 15.689 7.46135 15.6849 7.54226C15.8641 7.6315 16.0386 7.73477 16.2037 7.84931C16.5628 8.09843 16.8793 8.40083 17.1445 8.74808C17.4131 9.09981 17.6228 9.4894 17.7679 9.90607C17.9179 10.3369 17.9956 10.7881 17.9989 11.2471C18.003 11.8096 17.8945 12.3574 17.6765 12.8753C17.4678 13.371 17.1683 13.8175 16.7863 14.2023C16.3997 14.5917 15.9485 14.898 15.4453 15.1129C14.9226 15.3359 14.3692 15.4491 13.8007 15.4491ZM5.84289 3.79517C5.29467 3.79517 4.76064 3.90345 4.25532 4.11704C3.76977 4.32225 3.33241 4.61517 2.95529 4.98769C2.57746 5.36095 2.27899 5.79549 2.06822 6.27928C1.84828 6.7841 1.7343 7.31926 1.72943 7.86988C1.72887 7.93262 1.72976 7.99624 1.73207 8.05895L1.73237 8.06693L1.72587 8.07157C1.28809 8.38441 0.922108 8.77459 0.638066 9.23122C0.242241 9.86762 0.0315328 10.6014 0.0287419 11.3533C0.026723 11.8979 0.133577 12.4282 0.346363 12.9294C0.549857 13.4088 0.841025 13.8406 1.21176 14.2127C1.58707 14.5894 2.02467 14.8858 2.51238 15.0938C3.01922 15.3098 3.55544 15.4194 4.10619 15.4194H13.8007C14.3652 15.4194 14.9146 15.3071 15.4336 15.0855C15.9333 14.8722 16.3813 14.568 16.7652 14.1813C17.1445 13.7993 17.442 13.356 17.6491 12.8638C17.8655 12.3496 17.9732 11.8057 17.9692 11.2473C17.9659 10.7915 17.8888 10.3436 17.7398 9.91581C17.5958 9.50214 17.3876 9.11531 17.1209 8.76607C16.8576 8.42125 16.5433 8.121 16.1868 7.87365C16.0202 7.7581 15.8439 7.65407 15.6629 7.56449L15.6542 7.56016L15.6547 7.55039C15.6591 7.46684 15.6614 7.38241 15.6614 7.29942C15.6614 6.6629 15.5365 6.04479 15.29 5.46222C15.0523 4.90013 14.7122 4.39562 14.2792 3.96265C13.8463 3.52968 13.3418 3.18962 12.7797 2.95186C12.1971 2.70544 11.579 2.5805 10.9425 2.5805C10.1454 2.5805 9.35713 2.7834 8.66274 3.16732C8.21368 3.41559 7.80904 3.7349 7.45998 4.11641L7.45288 4.12416L7.44323 4.12006C6.97318 3.92088 6.47552 3.81218 5.96412 3.79701C5.92401 3.79576 5.88321 3.79517 5.84289 3.79517ZM13.8006 14.1771H4.10619C3.34767 14.1771 2.63227 13.8784 2.0918 13.3359C1.55973 12.8019 1.26823 12.0994 1.27099 11.3579C1.27488 10.3112 1.8546 9.36022 2.7839 8.87619C2.95624 8.78641 3.04962 8.60025 3.01622 8.41294C2.98507 8.23848 2.97008 8.05945 2.97168 7.88084C2.97839 7.12419 3.28259 6.41057 3.82829 5.87149C4.37274 5.3336 5.08809 5.03736 5.84248 5.03736H5.84272C5.87077 5.03736 5.89916 5.03778 5.92736 5.03861C6.46249 5.05449 6.98072 5.21936 7.42604 5.51539C7.49964 5.56432 7.58491 5.59021 7.67259 5.59021C7.81902 5.59021 7.95369 5.51801 8.03287 5.39708C8.67851 4.41123 9.76622 3.82269 10.9425 3.82269C12.8596 3.82269 14.4192 5.38233 14.4192 7.29939C14.4192 7.53216 14.3958 7.76537 14.3494 7.99259C14.3047 8.21221 14.4379 8.43408 14.6527 8.49773C15.2364 8.67071 15.7623 9.03372 16.1337 9.52001C16.5173 10.0223 16.7225 10.6227 16.727 11.2562C16.7326 12.0248 16.4331 12.7528 15.8837 13.3061C15.326 13.8678 14.5862 14.1771 13.8006 14.1771ZM5.84245 5.06705C5.0959 5.06705 4.388 5.36024 3.8491 5.8926C3.30905 6.42616 3.00793 7.13233 3.00131 7.88111C2.99974 8.05791 3.01458 8.23507 3.0454 8.40774C3.08112 8.60788 2.98151 8.80671 2.79758 8.90252C1.87812 9.38145 1.30451 10.3223 1.30068 11.358C1.29795 12.0915 1.58639 12.7865 2.11285 13.315C2.64771 13.8518 3.3556 14.1475 4.10619 14.1475H13.8006C14.5782 14.1475 15.3105 13.8412 15.8626 13.2851C16.4063 12.7374 16.7028 12.0169 16.6973 11.2564C16.6928 10.6294 16.4897 10.0352 16.11 9.53797C15.7425 9.05667 15.2219 8.69734 14.6443 8.52615C14.4148 8.45816 14.2725 8.22117 14.3203 7.98662C14.3662 7.76137 14.3895 7.53014 14.3895 7.29936C14.3895 5.39865 12.8432 3.85235 10.9425 3.85235C9.77626 3.85235 8.6978 4.43587 8.05766 5.41332C7.97296 5.54265 7.82899 5.6199 7.67253 5.6199C7.57897 5.6199 7.48803 5.59232 7.40953 5.54013C6.96885 5.24715 6.45599 5.084 5.92641 5.0683C5.8985 5.06747 5.87042 5.06705 5.84263 5.06705H5.84245Z" fill="white"/>
<path d="M11.873 7.64368C11.679 7.44753 11.3629 7.44505 11.1659 7.63817L7.47008 11.2909L5.86347 9.62766C5.67185 9.42794 5.35461 9.42138 5.15492 9.61301C4.9552 9.80463 4.94865 10.1219 5.14027 10.3216C5.14113 10.3224 5.14198 10.3233 5.14285 10.3242L7.10177 12.3543C7.19552 12.4499 7.32365 12.5041 7.45758 12.5046H7.46309C7.59448 12.5042 7.72046 12.4522 7.81388 12.3598L11.8685 8.35078C12.0644 8.15651 12.0664 7.84045 11.873 7.64368Z" fill="white"/>
</g>
<defs>
<clipPath id="clip0_2489_8347">
<rect width="18" height="18" fill="white"/>
</clipPath>
</defs>
</svg>
