<svg width="18" height="18" viewBox="0 0 18 18" fill="none" xmlns="http://www.w3.org/2000/svg">
<g clip-path="url(#clip0_2489_8112)">
<path d="M17.1337 8.75706C16.8694 8.41093 16.554 8.10964 16.1963 7.86146C16.0282 7.74487 15.8526 7.64128 15.6706 7.55118C15.675 7.4673 15.6773 7.38334 15.6773 7.29944C15.6773 6.66093 15.5519 6.04085 15.3047 5.45644C15.0663 4.8926 14.7251 4.38648 14.2908 3.95214C13.8565 3.51781 13.3504 3.17665 12.7865 2.93818C12.2021 2.69098 11.5821 2.56566 10.9436 2.56566C10.144 2.56566 9.35319 2.76921 8.65664 3.15432C8.20592 3.40351 7.7975 3.72665 7.4501 4.10638C6.98199 3.908 6.47922 3.7974 5.96562 3.78217C5.92536 3.78095 5.88438 3.78036 5.84392 3.78036C5.29391 3.78033 4.75789 3.88899 4.25056 4.10341C3.76329 4.30937 3.32432 4.60333 2.9459 4.97719C2.5667 5.35178 2.26719 5.7879 2.05565 6.27341C1.8349 6.78007 1.72051 7.31719 1.71564 7.86981C1.71508 7.93302 1.71597 7.99632 1.71828 8.05956C1.28291 8.37068 0.911077 8.76597 0.626501 9.22346C0.229192 9.86211 0.0177114 10.5986 0.0149206 11.3533C0.0129017 11.8999 0.120141 12.4322 0.33373 12.9353C0.537966 13.4164 0.830202 13.8497 1.20227 14.2232C1.57898 14.6013 2.01812 14.8988 2.50756 15.1074C3.01629 15.3243 3.55448 15.4343 4.10718 15.4343H13.8017C14.3682 15.4343 14.9196 15.3215 15.4405 15.0992C15.9419 14.8851 16.3915 14.5798 16.7767 14.1918C17.1574 13.8084 17.4559 13.3635 17.6638 12.8695C17.881 12.3535 17.9891 11.8077 17.9851 11.2472C17.9818 10.7898 17.9043 10.3402 17.7549 9.91092C17.6103 9.49574 17.4013 9.10749 17.1337 8.75706ZM13.8016 14.1624H4.10718C2.56477 14.1624 1.28107 12.9004 1.28683 11.358C1.29084 10.2844 1.9004 9.35368 2.79175 8.88939C2.96704 8.79809 3.06653 8.60496 3.03182 8.41037C3.00118 8.23873 2.98592 8.06178 2.98749 7.881C3.0013 6.32214 4.29435 5.05209 5.84368 5.05224C5.87159 5.05224 5.89982 5.05266 5.92788 5.05349C6.47827 5.06982 6.98929 5.24229 7.41878 5.52778C7.49716 5.57989 7.58594 5.60507 7.67355 5.60507C7.81882 5.60507 7.96077 5.5358 8.04628 5.40522C8.66448 4.4613 9.73093 3.83754 10.9435 3.83754C12.8555 3.83754 14.4054 5.38747 14.4054 7.29941C14.4054 7.53586 14.3813 7.76661 14.3359 7.98964C14.2894 8.21819 14.4258 8.4457 14.6495 8.51197C15.8362 8.86365 16.7038 9.95766 16.7132 11.2563C16.7247 12.8546 15.4 14.1624 13.8016 14.1624Z" fill="white"/>
<path d="M13.8007 15.4491H4.10619C3.55144 15.4491 3.01129 15.3387 2.50071 15.1211C2.0095 14.9116 1.56875 14.6131 1.19071 14.2336C0.817303 13.8588 0.523997 13.4239 0.319019 12.941C0.104659 12.4361 -0.00299646 11.9018 -0.000947869 11.3532C0.00187266 10.5958 0.214125 9.85662 0.612859 9.21556C0.897584 8.7578 1.26402 8.3664 1.70212 8.05208C1.70001 7.99148 1.69921 7.93017 1.69974 7.86963C1.70464 7.315 1.81945 6.77595 2.041 6.26745C2.25328 5.78018 2.55389 5.34253 2.93442 4.96662C3.31421 4.59146 3.75472 4.29644 4.24374 4.08974C4.75277 3.87461 5.29066 3.76552 5.84254 3.76552C5.88348 3.76552 5.9246 3.76615 5.96501 3.76737C6.47662 3.78254 6.97455 3.89061 7.44516 4.08867C7.79476 3.70816 8.19955 3.38947 8.64837 3.14136C9.34715 2.75503 10.1404 2.55083 10.9425 2.55083C11.5829 2.55083 12.205 2.67656 12.7913 2.92453C13.3569 3.16377 13.8646 3.50598 14.3002 3.94167C14.7359 4.37737 15.0781 4.88507 15.3174 5.45069C15.5653 6.03694 15.6911 6.65894 15.6911 7.29947C15.6911 7.37975 15.689 7.46137 15.6849 7.54227C15.8641 7.63152 16.0386 7.73478 16.2037 7.84932C16.5628 8.09845 16.8793 8.40084 17.1445 8.74809C17.4131 9.09983 17.6228 9.48942 17.7679 9.90608C17.9179 10.3369 17.9956 10.7881 17.9989 11.2471C18.003 11.8096 17.8945 12.3574 17.6765 12.8753C17.4678 13.371 17.1683 13.8175 16.7863 14.2023C16.3997 14.5917 15.9485 14.8981 15.4453 15.1129C14.9226 15.336 14.3692 15.4491 13.8007 15.4491ZM5.84289 3.79518C5.29467 3.79518 4.76064 3.90346 4.25532 4.11705C3.76977 4.32227 3.33241 4.61519 2.95529 4.9877C2.57746 5.36096 2.27899 5.7955 2.06822 6.2793C1.84828 6.78411 1.7343 7.31927 1.72943 7.8699C1.72887 7.93263 1.72976 7.99626 1.73207 8.05896L1.73237 8.06695L1.72587 8.07158C1.28809 8.38442 0.922108 8.7746 0.638066 9.23123C0.242241 9.86763 0.0315328 10.6014 0.0287419 11.3533C0.026723 11.8979 0.133577 12.4282 0.346363 12.9295C0.549857 13.4088 0.841025 13.8406 1.21176 14.2127C1.58707 14.5894 2.02467 14.8859 2.51238 15.0938C3.01922 15.3099 3.55544 15.4194 4.10619 15.4194H13.8007C14.3652 15.4194 14.9146 15.3071 15.4336 15.0856C15.9333 14.8723 16.3813 14.568 16.7652 14.1814C17.1446 13.7993 17.442 13.356 17.6491 12.8638C17.8655 12.3496 17.9733 11.8058 17.9692 11.2473C17.9659 10.7916 17.8888 10.3436 17.7398 9.91582C17.5958 9.50215 17.3876 9.11532 17.1209 8.76608C16.8576 8.42127 16.5433 8.12102 16.1868 7.87367C16.0202 7.75812 15.8439 7.65408 15.6629 7.56451L15.6542 7.56017L15.6547 7.55041C15.6591 7.46686 15.6614 7.38242 15.6614 7.29944C15.6614 6.66292 15.5365 6.04481 15.29 5.46224C15.0523 4.90015 14.7122 4.39563 14.2792 3.96266C13.8463 3.5297 13.3418 3.18963 12.7797 2.95188C12.1971 2.70545 11.579 2.58052 10.9425 2.58052C10.1454 2.58052 9.35713 2.78342 8.66274 3.16734C8.21368 3.4156 7.80904 3.73491 7.45998 4.11643L7.45288 4.12418L7.44323 4.12008C6.97318 3.92089 6.47552 3.8122 5.96412 3.79703C5.92401 3.79578 5.88321 3.79518 5.84289 3.79518ZM13.8006 14.1772H4.10619C3.34767 14.1772 2.63227 13.8784 2.0918 13.3359C1.55973 12.8019 1.26823 12.0994 1.27099 11.3579C1.27488 10.3112 1.8546 9.36024 2.7839 8.8762C2.95624 8.78642 3.04962 8.60027 3.01622 8.41295C2.98507 8.2385 2.97008 8.05947 2.97168 7.88085C2.97839 7.12421 3.28259 6.41059 3.82829 5.87151C4.37274 5.33362 5.08809 5.03738 5.84248 5.03738H5.84272C5.87077 5.03738 5.89916 5.03779 5.92736 5.03862C6.46249 5.05451 6.98072 5.21937 7.42604 5.51541C7.49964 5.56434 7.58491 5.59023 7.67259 5.59023C7.81902 5.59023 7.95369 5.51802 8.03287 5.3971C8.67851 4.41125 9.76622 3.82271 10.9425 3.82271C12.8596 3.82271 14.4192 5.38234 14.4192 7.29941C14.4192 7.53218 14.3958 7.76539 14.3494 7.99261C14.3047 8.21222 14.4379 8.43409 14.6527 8.49775C15.2364 8.67072 15.7623 9.03374 16.1337 9.52003C16.5173 10.0223 16.7225 10.6227 16.727 11.2562C16.7326 12.0248 16.4331 12.7528 15.8837 13.3061C15.326 13.8678 14.5862 14.1772 13.8006 14.1772ZM5.84245 5.06707C5.0959 5.06707 4.388 5.36025 3.84911 5.89262C3.30905 6.42617 3.00793 7.13234 3.00131 7.88112C2.99974 8.05792 3.01459 8.23508 3.0454 8.40776C3.08112 8.6079 2.98151 8.80673 2.79758 8.90254C1.87812 9.38146 1.30451 10.3223 1.30068 11.358C1.29795 12.0915 1.58639 12.7865 2.11285 13.315C2.64771 13.8518 3.3556 14.1475 4.10619 14.1475H13.8006C14.5782 14.1475 15.3105 13.8412 15.8626 13.2851C16.4063 12.7374 16.7028 12.017 16.6973 11.2564C16.6928 10.6294 16.4897 10.0352 16.11 9.53799C15.7425 9.05669 15.2219 8.69735 14.6443 8.52616C14.4148 8.45817 14.2725 8.22119 14.3203 7.98664C14.3662 7.76138 14.3895 7.53016 14.3895 7.29938C14.3895 5.39867 12.8432 3.85237 10.9425 3.85237C9.77626 3.85237 8.6978 4.43589 8.05766 5.41334C7.97296 5.54267 7.82899 5.61992 7.67253 5.61992C7.57897 5.61992 7.48803 5.59234 7.40953 5.54014C6.96885 5.24716 6.45599 5.08402 5.92641 5.06831C5.8985 5.06748 5.87042 5.06707 5.84263 5.06707H5.84245Z" fill="white"/>
<path d="M11.5323 7.4932C11.2839 7.24484 10.8812 7.24484 10.6329 7.4932L9.16397 8.96214L7.695 7.4932C7.44665 7.24484 7.04397 7.24484 6.79564 7.4932C6.54729 7.74158 6.54729 8.14424 6.79564 8.39259L8.26457 9.86153L6.79564 11.3305C6.54729 11.5788 6.54729 11.9815 6.79564 12.2299C6.91983 12.3541 7.08256 12.4161 7.24532 12.4161C7.40805 12.4161 7.57084 12.354 7.695 12.2299L9.16394 10.7609L10.6329 12.2299C10.7571 12.3541 10.9198 12.4161 11.0826 12.4161C11.2453 12.4161 11.4081 12.354 11.5323 12.2299C11.7806 11.9815 11.7806 11.5788 11.5323 11.3305L10.0633 9.86153L11.5323 8.39259C11.7806 8.14424 11.7806 7.74158 11.5323 7.4932Z" fill="white"/>
<path d="M11.0822 12.4307C10.9084 12.4307 10.7449 12.363 10.622 12.2401L9.16359 10.7816L7.70517 12.2401C7.58225 12.363 7.41881 12.4307 7.24497 12.4307C7.07114 12.4307 6.9077 12.363 6.78478 12.2401C6.53105 11.9863 6.53105 11.5734 6.78478 11.3197L8.24324 9.86127L6.78478 8.40282C6.53105 8.14909 6.53105 7.73619 6.78478 7.48243C6.9077 7.35952 7.07111 7.29182 7.24497 7.29182C7.41881 7.29182 7.58222 7.35952 7.70517 7.48243L9.16362 8.94088L10.622 7.48243C10.745 7.35952 10.9084 7.29182 11.0822 7.29182C11.256 7.29182 11.4195 7.35952 11.5424 7.48243C11.7961 7.73619 11.7962 8.14906 11.5424 8.40282L10.084 9.86127L11.5424 11.3197C11.6654 11.4426 11.733 11.606 11.733 11.7799C11.733 11.9537 11.6654 12.1171 11.5424 12.2401C11.4195 12.363 11.2561 12.4307 11.0822 12.4307ZM9.16359 10.7397L10.643 12.2191C10.7603 12.3364 10.9163 12.401 11.0822 12.401C11.2481 12.401 11.4041 12.3364 11.5214 12.2191C11.6387 12.1018 11.7033 11.9458 11.7033 11.7799C11.7033 11.614 11.6387 11.458 11.5214 11.3407L10.042 9.86127L11.5214 8.38182C11.7636 8.13965 11.7635 7.7456 11.5214 7.50342C11.4041 7.38612 11.2481 7.32151 11.0822 7.32151C10.9163 7.32151 10.7603 7.38612 10.643 7.50342L9.16359 8.98286L7.68415 7.50342C7.56684 7.38612 7.41085 7.32151 7.24497 7.32151C7.07907 7.32151 6.9231 7.38612 6.8058 7.50342C6.56365 7.7456 6.56365 8.13965 6.8058 8.38182L8.28525 9.86127L6.8058 11.3407C6.56365 11.5829 6.56365 11.9769 6.8058 12.2191C6.9231 12.3364 7.0791 12.401 7.245 12.401C7.41091 12.401 7.5669 12.3364 7.6842 12.2191L9.16359 10.7397Z" fill="white"/>
</g>
<defs>
<clipPath id="clip0_2489_8112">
<rect width="18" height="18" fill="white"/>
</clipPath>
</defs>
</svg>
